<svg xmlns="http://www.w3.org/2000/svg" width="960" height="910" viewBox="0 0 960 910">
<defs><marker id="a" markerWidth="9" markerHeight="9" refX="7" refY="3" orient="auto"><path d="M0,0 L8,3 L0,6 z" fill="#1F3864"/></marker><marker id="an" markerWidth="9" markerHeight="9" refX="7" refY="3" orient="auto"><path d="M0,0 L8,3 L0,6 z" fill="#A6A6A6"/></marker></defs>
<rect width="960" height="910" fill="#FFFFFF"/>
<rect x="0" y="48" width="240" height="818" fill="#F6F8FC"/>
<rect x="0" y="0" width="240" height="48" fill="#1F3864" stroke="#FFFFFF" stroke-width="1"/>
<text x="120.0" y="24.0" text-anchor="middle" dominant-baseline="middle" font-family="DejaVu Sans,Arial,sans-serif" font-size="12" fill="#FFFFFF" font-weight="bold"><tspan x="120.0" dy="0.0">Usuario / Monitoreo</tspan></text>
<rect x="240" y="48" width="240" height="818" fill="#FFFFFF"/>
<rect x="240" y="0" width="240" height="48" fill="#1F3864" stroke="#FFFFFF" stroke-width="1"/>
<text x="360.0" y="24.0" text-anchor="middle" dominant-baseline="middle" font-family="DejaVu Sans,Arial,sans-serif" font-size="12" fill="#FFFFFF" font-weight="bold"><tspan x="360.0" dy="0.0">Analista ERI</tspan></text>
<line x1="240" y1="48" x2="240" y2="866" stroke="#C9D2E3" stroke-width="1"/>
<rect x="480" y="48" width="240" height="818" fill="#F6F8FC"/>
<rect x="480" y="0" width="240" height="48" fill="#1F3864" stroke="#FFFFFF" stroke-width="1"/>
<text x="600.0" y="24.0" text-anchor="middle" dominant-baseline="middle" font-family="DejaVu Sans,Arial,sans-serif" font-size="12" fill="#FFFFFF" font-weight="bold"><tspan x="600.0" dy="0.0">CISO</tspan></text>
<line x1="480" y1="48" x2="480" y2="866" stroke="#C9D2E3" stroke-width="1"/>
<rect x="720" y="48" width="240" height="818" fill="#FFFFFF"/>
<rect x="720" y="0" width="240" height="48" fill="#1F3864" stroke="#FFFFFF" stroke-width="1"/>
<text x="840.0" y="24.0" text-anchor="middle" dominant-baseline="middle" font-family="DejaVu Sans,Arial,sans-serif" font-size="12" fill="#FFFFFF" font-weight="bold"><tspan x="840.0" dy="0.0">Gerencia / Legal</tspan></text>
<line x1="720" y1="48" x2="720" y2="866" stroke="#C9D2E3" stroke-width="1"/>
<rect x="0" y="0" width="960" height="866" fill="none" stroke="#1F3864" stroke-width="1.2"/>
<path d="M120.0,114 L120.0,129.0 L360.0,129.0 L360.0,144" fill="none" stroke="#1F3864" stroke-width="1.6" marker-end="url(#a)"/>
<line x1="360.0" y1="196" x2="360.0" y2="226" stroke="#1F3864" stroke-width="1.6" marker-end="url(#a)"/>
<path d="M360.0,306 L360.0,321.0 L600.0,321.0 L600.0,336" fill="none" stroke="#1F3864" stroke-width="1.6" marker-end="url(#a)"/>
<text x="367.0" y="319" font-family="DejaVu Sans,Arial" font-size="11" fill="#375623">Sí</text>
<path d="M600.0,388 L600.0,403.0 L360.0,403.0 L360.0,418" fill="none" stroke="#1F3864" stroke-width="1.6" marker-end="url(#a)"/>
<path d="M360.0,470 L360.0,485.0 L600.0,485.0 L600.0,500" fill="none" stroke="#1F3864" stroke-width="1.6" marker-end="url(#a)"/>
<path d="M600.0,552 L600.0,567.0 L360.0,567.0 L360.0,582" fill="none" stroke="#1F3864" stroke-width="1.6" marker-end="url(#a)"/>
<path d="M360.0,634 L360.0,649.0 L600.0,649.0 L600.0,664" fill="none" stroke="#1F3864" stroke-width="1.6" marker-end="url(#a)"/>
<path d="M600.0,716 L600.0,731.0 L840.0,731.0 L840.0,746" fill="none" stroke="#1F3864" stroke-width="1.6" marker-end="url(#a)"/>
<rect x="18.0" y="72" width="204" height="42" rx="21.0" fill="#1F3864" stroke="#1F3864" stroke-width="1.6"/>
<text x="120.0" y="93.0" text-anchor="middle" dominant-baseline="middle" font-family="DejaVu Sans,Arial,sans-serif" font-size="12" fill="#FFFFFF" font-weight="bold"><tspan x="120.0" dy="0.0">Detección del evento</tspan></text>
<rect x="258.0" y="144" width="204" height="52" rx="9" fill="#D9E1F2" stroke="#1F3864" stroke-width="1.4"/>
<text x="360.0" y="170.0" text-anchor="middle" dominant-baseline="middle" font-family="DejaVu Sans,Arial,sans-serif" font-size="12" fill="#1F3864"><tspan x="360.0" dy="-7.5">Registro y triage (SIEM /</tspan><tspan x="360.0" dy="15.0">ticket)</tspan></text>
<polygon points="360.0,226 444.0,266.0 360.0,306 276.0,266.0" fill="#FFE699" stroke="#BF8F00" stroke-width="1.6"/>
<text x="360.0" y="266.0" text-anchor="middle" dominant-baseline="middle" font-family="DejaVu Sans,Arial,sans-serif" font-size="11" fill="#7F6000"><tspan x="360.0" dy="-7.0">¿N3 o servicio</tspan><tspan x="360.0" dy="14.0">esencial?</tspan></text>
<path d="M444.0,266.0 L498.0,266.0" fill="none" stroke="#A6A6A6" stroke-width="1.4" marker-end="url(#an)"/>
<text x="471.0" y="261.0" text-anchor="middle" font-family="DejaVu Sans,Arial" font-size="11" fill="#C00000">No</text>
<rect x="498.0" y="246.0" width="204" height="40" rx="7" fill="#F2F2F2" stroke="#A6A6A6"/>
<text x="600.0" y="266.0" text-anchor="middle" dominant-baseline="middle" font-family="DejaVu Sans,Arial,sans-serif" font-size="11" fill="#595959"><tspan x="600.0" dy="0.0">Gestión interna y cierre</tspan></text>
<rect x="498.0" y="336" width="204" height="52" rx="9" fill="#FBE2D5" stroke="#C00000" stroke-width="2"/>
<text x="600.0" y="362.0" text-anchor="middle" dominant-baseline="middle" font-family="DejaVu Sans,Arial,sans-serif" font-size="12" fill="#C00000" font-weight="bold"><tspan x="600.0" dy="-7.5">Alerta temprana a ANCI ≤ 3</tspan><tspan x="600.0" dy="15.0">h</tspan></text>
<rect x="258.0" y="418" width="204" height="52" rx="9" fill="#D9E1F2" stroke="#1F3864" stroke-width="1.4"/>
<text x="360.0" y="444.0" text-anchor="middle" dominant-baseline="middle" font-family="DejaVu Sans,Arial,sans-serif" font-size="12" fill="#1F3864"><tspan x="360.0" dy="-7.5">Contención y preservación</tspan><tspan x="360.0" dy="15.0">de evidencia</tspan></text>
<rect x="498.0" y="500" width="204" height="52" rx="9" fill="#FBE2D5" stroke="#C00000" stroke-width="2"/>
<text x="600.0" y="526.0" text-anchor="middle" dominant-baseline="middle" font-family="DejaVu Sans,Arial,sans-serif" font-size="12" fill="#C00000" font-weight="bold"><tspan x="600.0" dy="-7.5">Actualización a ANCI ≤ 72</tspan><tspan x="600.0" dy="15.0">h (24 h OIV)</tspan></text>
<rect x="258.0" y="582" width="204" height="52" rx="9" fill="#D9E1F2" stroke="#1F3864" stroke-width="1.4"/>
<text x="360.0" y="608.0" text-anchor="middle" dominant-baseline="middle" font-family="DejaVu Sans,Arial,sans-serif" font-size="12" fill="#1F3864"><tspan x="360.0" dy="-7.5">Erradicación y</tspan><tspan x="360.0" dy="15.0">recuperación (PROC-02/03)</tspan></text>
<rect x="498.0" y="664" width="204" height="52" rx="9" fill="#FBE2D5" stroke="#C00000" stroke-width="2"/>
<text x="600.0" y="690.0" text-anchor="middle" dominant-baseline="middle" font-family="DejaVu Sans,Arial,sans-serif" font-size="12" fill="#C00000" font-weight="bold"><tspan x="600.0" dy="-7.5">Informe final a ANCI ≤ 15</tspan><tspan x="600.0" dy="15.0">días</tspan></text>
<rect x="738.0" y="746" width="204" height="42" rx="21.0" fill="#375623" stroke="#375623" stroke-width="1.6"/>
<text x="840.0" y="767.0" text-anchor="middle" dominant-baseline="middle" font-family="DejaVu Sans,Arial,sans-serif" font-size="12" fill="#FFFFFF" font-weight="bold"><tspan x="840.0" dy="-7.5">Cierre y lecciones</tspan><tspan x="840.0" dy="15.0">aprendidas</tspan></text>
<text x="480.0" y="882" text-anchor="middle" dominant-baseline="middle" font-family="DejaVu Sans,Arial,sans-serif" font-size="12" fill="#1F3864" font-weight="bold"><tspan x="480.0" dy="0.0">PROC-SGSI-05 — Gestión de incidentes y notificación ANCI  ·  ISO/IEC 27001:2022: 5.24–5.26</tspan></text>
<text x="480.0" y="898" text-anchor="middle" dominant-baseline="middle" font-family="DejaVu Sans,Arial,sans-serif" font-size="10" fill="#595959"><tspan x="480.0" dy="0.0">Evidencia: Ticket, cadena de custodia, reportes ANCI   ·   Plazos: 3 h / 72 h / 15 días</tspan></text>
</svg>