<svg xmlns="http://www.w3.org/2000/svg" width="960" height="746" viewBox="0 0 960 746">
<defs><marker id="a" markerWidth="9" markerHeight="9" refX="7" refY="3" orient="auto"><path d="M0,0 L8,3 L0,6 z" fill="#1F3864"/></marker><marker id="an" markerWidth="9" markerHeight="9" refX="7" refY="3" orient="auto"><path d="M0,0 L8,3 L0,6 z" fill="#A6A6A6"/></marker></defs>
<rect width="960" height="746" fill="#FFFFFF"/>
<rect x="0" y="48" width="240" height="654" fill="#F6F8FC"/>
<rect x="0" y="0" width="240" height="48" fill="#1F3864" stroke="#FFFFFF" stroke-width="1"/>
<text x="120.0" y="24.0" text-anchor="middle" dominant-baseline="middle" font-family="DejaVu Sans,Arial,sans-serif" font-size="12" fill="#FFFFFF" font-weight="bold"><tspan x="120.0" dy="0.0">RRHH</tspan></text>
<rect x="240" y="48" width="240" height="654" fill="#FFFFFF"/>
<rect x="240" y="0" width="240" height="48" fill="#1F3864" stroke="#FFFFFF" stroke-width="1"/>
<text x="360.0" y="24.0" text-anchor="middle" dominant-baseline="middle" font-family="DejaVu Sans,Arial,sans-serif" font-size="12" fill="#FFFFFF" font-weight="bold"><tspan x="360.0" dy="0.0">Jefatura</tspan></text>
<line x1="240" y1="48" x2="240" y2="702" stroke="#C9D2E3" stroke-width="1"/>
<rect x="480" y="48" width="240" height="654" fill="#F6F8FC"/>
<rect x="480" y="0" width="240" height="48" fill="#1F3864" stroke="#FFFFFF" stroke-width="1"/>
<text x="600.0" y="24.0" text-anchor="middle" dominant-baseline="middle" font-family="DejaVu Sans,Arial,sans-serif" font-size="12" fill="#FFFFFF" font-weight="bold"><tspan x="600.0" dy="0.0">Gerencia TI</tspan></text>
<line x1="480" y1="48" x2="480" y2="702" stroke="#C9D2E3" stroke-width="1"/>
<rect x="720" y="48" width="240" height="654" fill="#FFFFFF"/>
<rect x="720" y="0" width="240" height="48" fill="#1F3864" stroke="#FFFFFF" stroke-width="1"/>
<text x="840.0" y="24.0" text-anchor="middle" dominant-baseline="middle" font-family="DejaVu Sans,Arial,sans-serif" font-size="12" fill="#FFFFFF" font-weight="bold"><tspan x="840.0" dy="0.0">CISO</tspan></text>
<line x1="720" y1="48" x2="720" y2="702" stroke="#C9D2E3" stroke-width="1"/>
<rect x="0" y="0" width="960" height="702" fill="none" stroke="#1F3864" stroke-width="1.2"/>
<path d="M120.0,114 L120.0,129.0 L360.0,129.0 L360.0,144" fill="none" stroke="#1F3864" stroke-width="1.6" marker-end="url(#a)"/>
<path d="M360.0,196 L360.0,211.0 L600.0,211.0 L600.0,226" fill="none" stroke="#1F3864" stroke-width="1.6" marker-end="url(#a)"/>
<path d="M600.0,278 L600.0,293.0 L120.0,293.0 L120.0,308" fill="none" stroke="#1F3864" stroke-width="1.6" marker-end="url(#a)"/>
<line x1="120.0" y1="360" x2="120.0" y2="390" stroke="#1F3864" stroke-width="1.6" marker-end="url(#a)"/>
<path d="M120.0,470 L120.0,485.0 L840.0,485.0 L840.0,500" fill="none" stroke="#1F3864" stroke-width="1.6" marker-end="url(#a)"/>
<text x="127.0" y="483" font-family="DejaVu Sans,Arial" font-size="11" fill="#375623">Sí</text>
<path d="M840.0,552 L840.0,567.0 L600.0,567.0 L600.0,582" fill="none" stroke="#1F3864" stroke-width="1.6" marker-end="url(#a)"/>
<rect x="18.0" y="72" width="204" height="42" rx="21.0" fill="#1F3864" stroke="#1F3864" stroke-width="1.6"/>
<text x="120.0" y="93.0" text-anchor="middle" dominant-baseline="middle" font-family="DejaVu Sans,Arial,sans-serif" font-size="12" fill="#FFFFFF" font-weight="bold"><tspan x="120.0" dy="-7.5">Pre-empleo: verificación +</tspan><tspan x="120.0" dy="15.0">cláusulas / NDA</tspan></text>
<rect x="258.0" y="144" width="204" height="52" rx="9" fill="#D9E1F2" stroke="#1F3864" stroke-width="1.4"/>
<text x="360.0" y="170.0" text-anchor="middle" dominant-baseline="middle" font-family="DejaVu Sans,Arial,sans-serif" font-size="12" fill="#1F3864"><tspan x="360.0" dy="-7.5">Aprueba el perfil y los</tspan><tspan x="360.0" dy="15.0">accesos del cargo</tspan></text>
<rect x="498.0" y="226" width="204" height="52" rx="9" fill="#D9E1F2" stroke="#1F3864" stroke-width="1.4"/>
<text x="600.0" y="252.0" text-anchor="middle" dominant-baseline="middle" font-family="DejaVu Sans,Arial,sans-serif" font-size="12" fill="#1F3864"><tspan x="600.0" dy="-7.5">Onboarding: alta, MFA,</tspan><tspan x="600.0" dy="15.0">gestor, equipo cifrado</tspan></text>
<rect x="18.0" y="308" width="204" height="52" rx="9" fill="#D9E1F2" stroke="#1F3864" stroke-width="1.4"/>
<text x="120.0" y="334.0" text-anchor="middle" dominant-baseline="middle" font-family="DejaVu Sans,Arial,sans-serif" font-size="12" fill="#1F3864"><tspan x="120.0" dy="-7.5">Capacitación anual y</tspan><tspan x="120.0" dy="15.0">cambios de rol</tspan></text>
<polygon points="120.0,390 204.0,430.0 120.0,470 36.0,430.0" fill="#FFE699" stroke="#BF8F00" stroke-width="1.6"/>
<text x="120.0" y="430.0" text-anchor="middle" dominant-baseline="middle" font-family="DejaVu Sans,Arial,sans-serif" font-size="11" fill="#7F6000"><tspan x="120.0" dy="-7.0">¿Término de la</tspan><tspan x="120.0" dy="14.0">relación laboral?</tspan></text>
<path d="M204.0,430.0 L258.0,430.0" fill="none" stroke="#A6A6A6" stroke-width="1.4" marker-end="url(#an)"/>
<text x="231.0" y="425.0" text-anchor="middle" font-family="DejaVu Sans,Arial" font-size="11" fill="#C00000">No</text>
<rect x="258.0" y="410.0" width="204" height="40" rx="7" fill="#F2F2F2" stroke="#A6A6A6"/>
<text x="360.0" y="430.0" text-anchor="middle" dominant-baseline="middle" font-family="DejaVu Sans,Arial,sans-serif" font-size="11" fill="#595959"><tspan x="360.0" dy="0.0">Continúa en operación</tspan></text>
<rect x="738.0" y="500" width="204" height="52" rx="9" fill="#D9E1F2" stroke="#1F3864" stroke-width="1.4"/>
<text x="840.0" y="526.0" text-anchor="middle" dominant-baseline="middle" font-family="DejaVu Sans,Arial,sans-serif" font-size="12" fill="#1F3864"><tspan x="840.0" dy="-7.5">Revisión de logs si es</tspan><tspan x="840.0" dy="15.0">despido por causa grave</tspan></text>
<rect x="498.0" y="582" width="204" height="42" rx="21.0" fill="#375623" stroke="#375623" stroke-width="1.6"/>
<text x="600.0" y="603.0" text-anchor="middle" dominant-baseline="middle" font-family="DejaVu Sans,Arial,sans-serif" font-size="12" fill="#FFFFFF" font-weight="bold"><tspan x="600.0" dy="-15.0">Offboarding: revocar</tspan><tspan x="600.0" dy="15.0">accesos + devolución +</tspan><tspan x="600.0" dy="15.0">borrado</tspan></text>
<text x="480.0" y="718" text-anchor="middle" dominant-baseline="middle" font-family="DejaVu Sans,Arial,sans-serif" font-size="12" fill="#1F3864" font-weight="bold"><tspan x="480.0" dy="0.0">PROC-SGSI-13 — Contratación y desvinculación  ·  ISO/IEC 27001:2022: 6.1, 6.2, 6.5</tspan></text>
<text x="480.0" y="734" text-anchor="middle" dominant-baseline="middle" font-family="DejaVu Sans,Arial,sans-serif" font-size="10" fill="#595959"><tspan x="480.0" dy="0.0">Evidencia: Checklist on/offboarding firmado   ·   Plazos: Baja el mismo día</tspan></text>
</svg>