<svg xmlns="http://www.w3.org/2000/svg" width="760" height="808" viewBox="0 0 760 808">
<defs><marker id="a" markerWidth="9" markerHeight="9" refX="7" refY="3" orient="auto"><path d="M0,0 L8,3 L0,6 z" fill="#1F3864"/></marker><marker id="an" markerWidth="9" markerHeight="9" refX="7" refY="3" orient="auto"><path d="M0,0 L8,3 L0,6 z" fill="#A6A6A6"/></marker></defs>
<rect width="760" height="808" fill="#FFFFFF"/>
<text x="380.0" y="30" text-anchor="middle" dominant-baseline="middle" font-family="DejaVu Sans, Arial, sans-serif" font-size="16" fill="#1F3864" font-weight="bold"><tspan x="380.0" dy="0.0">POL-SGSI-12 — Política de cifrado de datos</tspan></text>
<text x="380.0" y="52" text-anchor="middle" dominant-baseline="middle" font-family="DejaVu Sans, Arial, sans-serif" font-size="11" fill="#595959"><tspan x="380.0" dy="0.0">ISO/IEC 27001:2022 — 8.24</tspan></text>
<line x1="40" y1="66" x2="720" y2="66" stroke="#1F3864" stroke-width="1"/>
<line x1="255" y1="136" x2="255" y2="176" stroke="#1F3864" stroke-width="1.6" marker-end="url(#a)"/>
<line x1="255" y1="249" x2="255" y2="289" stroke="#1F3864" stroke-width="1.6" marker-end="url(#a)"/>
<line x1="255" y1="345" x2="255" y2="385" stroke="#1F3864" stroke-width="1.6" marker-end="url(#a)"/>
<line x1="255" y1="441" x2="255" y2="481" stroke="#1F3864" stroke-width="1.6" marker-end="url(#a)"/>
<line x1="255" y1="589" x2="255" y2="635" stroke="#1F3864" stroke-width="1.6" marker-end="url(#a)"/>
<text x="263" y="612.0" font-family="DejaVu Sans,Arial" font-size="11" fill="#375623">Sí</text>
<rect x="160" y="92" width="190" height="44" rx="22.0" fill="#1F3864" stroke="#1F3864" stroke-width="1.6"/>
<text x="255" y="114.0" text-anchor="middle" dominant-baseline="middle" font-family="DejaVu Sans, Arial, sans-serif" font-size="13" fill="#FFFFFF" font-weight="bold"><tspan x="255" dy="0.0">Inicio</tspan></text>
<rect x="85.0" y="176" width="340" height="73" rx="9" fill="#D9E1F2" stroke="#1F3864" stroke-width="1.5"/>
<text x="255" y="212.5" text-anchor="middle" dominant-baseline="middle" font-family="DejaVu Sans, Arial, sans-serif" font-size="13" fill="#1F3864"><tspan x="255" dy="-16.0">Alcance: la información</tspan><tspan x="255" dy="16.0">Confidencial/Secreta en tránsito y</tspan><tspan x="255" dy="16.0">reposo</tspan></text>
<rect x="85.0" y="289" width="340" height="56" rx="9" fill="#D9E1F2" stroke="#1F3864" stroke-width="1.5"/>
<text x="255" y="317.0" text-anchor="middle" dominant-baseline="middle" font-family="DejaVu Sans, Arial, sans-serif" font-size="13" fill="#1F3864"><tspan x="255" dy="-8.0">TLS 1.2 o superior en tránsito; cifrado</tspan><tspan x="255" dy="16.0">de BD, discos y backups</tspan></text>
<rect x="85.0" y="385" width="340" height="56" rx="9" fill="#D9E1F2" stroke="#1F3864" stroke-width="1.5"/>
<text x="255" y="413.0" text-anchor="middle" dominant-baseline="middle" font-family="DejaVu Sans, Arial, sans-serif" font-size="13" fill="#1F3864"><tspan x="255" dy="-8.0">Gestión del ciclo de vida de las llaves</tspan><tspan x="255" dy="16.0">criptográficas (PROC-18)</tspan></text>
<polygon points="255,481 360.0,535.0 255,589 150.0,535.0" fill="#FFE699" stroke="#BF8F00" stroke-width="1.6"/>
<text x="255" y="535.0" text-anchor="middle" dominant-baseline="middle" font-family="DejaVu Sans, Arial, sans-serif" font-size="12" fill="#7F6000"><tspan x="255" dy="-7.5">¿Cifrado y llaves</tspan><tspan x="255" dy="15.0">conformes?</tspan></text>
<line x1="360.0" y1="535.0" x2="500" y2="535.0" stroke="#A6A6A6" stroke-width="1.4" marker-end="url(#an)"/>
<text x="430.0" y="530.0" text-anchor="middle" font-family="DejaVu Sans,Arial" font-size="11" fill="#C00000">No</text>
<rect x="500" y="502.0" width="240" height="66" rx="7" fill="#F2F2F2" stroke="#A6A6A6"/>
<text x="620.0" y="535.0" text-anchor="middle" dominant-baseline="middle" font-family="DejaVu Sans, Arial, sans-serif" font-size="11" fill="#595959"><tspan x="620.0" dy="-14.0">Gestión de incumplimiento</tspan><tspan x="620.0" dy="14.0">(medidas disciplinarias /</tspan><tspan x="620.0" dy="14.0">POL-11)</tspan></text>
<rect x="160" y="635" width="190" height="44" rx="22.0" fill="#375623" stroke="#375623" stroke-width="1.6"/>
<text x="255" y="657.0" text-anchor="middle" dominant-baseline="middle" font-family="DejaVu Sans, Arial, sans-serif" font-size="13" fill="#FFFFFF" font-weight="bold"><tspan x="255" dy="-8.0">Conforme · evidencia</tspan><tspan x="255" dy="16.0">registrada</tspan></text>
<rect x="40" y="725" width="680" height="63" rx="6" fill="#F7F7F7" stroke="#D0D0D0"/>
<text x="54" y="739" text-anchor="start" dominant-baseline="middle" font-family="DejaVu Sans, Arial, sans-serif" font-size="11" fill="#404040"><tspan x="54" dy="0.0">Roles (RACI): CISO, Gerencia TI, DBA</tspan></text>
<text x="54" y="754" text-anchor="start" dominant-baseline="middle" font-family="DejaVu Sans, Arial, sans-serif" font-size="11" fill="#404040"><tspan x="54" dy="0.0">Evidencia / registros: Configuración TLS, inventario de llaves</tspan></text>
<text x="54" y="769" text-anchor="start" dominant-baseline="middle" font-family="DejaVu Sans, Arial, sans-serif" font-size="11" fill="#404040"><tspan x="54" dy="0.0">Plazos / hitos: Rotación periódica</tspan></text>
</svg>