<svg xmlns="http://www.w3.org/2000/svg" width="720" height="880" viewBox="0 0 720 880">
<defs><marker id="a" markerWidth="9" markerHeight="9" refX="7" refY="3" orient="auto"><path d="M0,0 L8,3 L0,6 z" fill="#1F3864"/></marker><marker id="an" markerWidth="9" markerHeight="9" refX="7" refY="3" orient="auto"><path d="M0,0 L8,3 L0,6 z" fill="#A6A6A6"/></marker></defs>
<rect x="0" y="0" width="720" height="880" fill="#FFFFFF"/>
<text x="360.0" y="34" text-anchor="middle" dominant-baseline="middle" font-family="DejaVu Sans, Arial, sans-serif" font-size="16" fill="#1F3864" font-weight="bold"><tspan x="360.0" dy="0.0">PROC-SGSI-15 — Desarrollo seguro (SDLC)</tspan></text>
<line x1="40" y1="52" x2="680" y2="52" stroke="#1F3864" stroke-width="1"/>
<line x1="250" y1="120" x2="250" y2="160" stroke="#1F3864" stroke-width="1.6" marker-end="url(#a)"/>
<line x1="250" y1="216" x2="250" y2="256" stroke="#1F3864" stroke-width="1.6" marker-end="url(#a)"/>
<line x1="250" y1="312" x2="250" y2="352" stroke="#1F3864" stroke-width="1.6" marker-end="url(#a)"/>
<line x1="250" y1="408" x2="250" y2="448" stroke="#1F3864" stroke-width="1.6" marker-end="url(#a)"/>
<line x1="250" y1="504" x2="250" y2="544" stroke="#1F3864" stroke-width="1.6" marker-end="url(#a)"/>
<line x1="250" y1="648" x2="250" y2="692" stroke="#1F3864" stroke-width="1.6" marker-end="url(#a)"/>
<text x="258" y="670.0" font-family="DejaVu Sans,Arial" font-size="11" fill="#375623">Sí</text>
<line x1="250" y1="748" x2="250" y2="788" stroke="#1F3864" stroke-width="1.6" marker-end="url(#a)"/>
<rect x="160" y="78" width="180" height="42" rx="21.0" ry="21.0" fill="#1F3864" stroke="#1F3864" stroke-width="1.6"/>
<text x="250" y="99.0" text-anchor="middle" dominant-baseline="middle" font-family="DejaVu Sans, Arial, sans-serif" font-size="14" fill="#FFFFFF" font-weight="bold"><tspan x="250" dy="0.0">Inicio</tspan></text>
<rect x="85.0" y="160" width="330" height="56" rx="9" fill="#D9E1F2" stroke="#1F3864" stroke-width="1.5"/>
<text x="250" y="188.0" text-anchor="middle" dominant-baseline="middle" font-family="DejaVu Sans, Arial, sans-serif" font-size="13" fill="#1F3864"><tspan x="250" dy="-8.0">Requisitos de seguridad desde el</tspan><tspan x="250" dy="16.0">diseño (OWASP ASVS)</tspan></text>
<rect x="85.0" y="256" width="330" height="56" rx="9" fill="#D9E1F2" stroke="#1F3864" stroke-width="1.5"/>
<text x="250" y="284.0" text-anchor="middle" dominant-baseline="middle" font-family="DejaVu Sans, Arial, sans-serif" font-size="13" fill="#1F3864"><tspan x="250" dy="-8.0">Diseño y arquitectura segura (modelado</tspan><tspan x="250" dy="16.0">de amenazas)</tspan></text>
<rect x="85.0" y="352" width="330" height="56" rx="9" fill="#D9E1F2" stroke="#1F3864" stroke-width="1.5"/>
<text x="250" y="380.0" text-anchor="middle" dominant-baseline="middle" font-family="DejaVu Sans, Arial, sans-serif" font-size="13" fill="#1F3864"><tspan x="250" dy="-8.0">Codificación segura (sin secretos en</tspan><tspan x="250" dy="16.0">el código)</tspan></text>
<rect x="85.0" y="448" width="330" height="56" rx="9" fill="#D9E1F2" stroke="#1F3864" stroke-width="1.5"/>
<text x="250" y="476.0" text-anchor="middle" dominant-baseline="middle" font-family="DejaVu Sans, Arial, sans-serif" font-size="13" fill="#1F3864"><tspan x="250" dy="-8.0">Pruebas SAST / DAST / SCA en el</tspan><tspan x="250" dy="16.0">pipeline de CI</tspan></text>
<polygon points="250,544 350.0,596.0 250,648 150.0,596.0" fill="#FFE699" stroke="#BF8F00" stroke-width="1.6"/>
<text x="250" y="596.0" text-anchor="middle" dominant-baseline="middle" font-family="DejaVu Sans, Arial, sans-serif" font-size="12" fill="#7F6000"><tspan x="250" dy="-15.0">¿Pasa las pruebas y</tspan><tspan x="250" dy="15.0">el pentest (release</tspan><tspan x="250" dy="15.0">mayor)?</tspan></text>
<line x1="350.0" y1="596.0" x2="470" y2="596.0" stroke="#A6A6A6" stroke-width="1.4" marker-end="url(#an)"/>
<text x="410.0" y="591.0" text-anchor="middle" font-family="DejaVu Sans,Arial" font-size="11" fill="#C00000">No</text>
<rect x="470" y="571.0" width="230" height="50" rx="7" fill="#F2F2F2" stroke="#A6A6A6" stroke-width="1.3"/>
<text x="585.0" y="596.0" text-anchor="middle" dominant-baseline="middle" font-family="DejaVu Sans, Arial, sans-serif" font-size="11" fill="#595959"><tspan x="585.0" dy="-7.0">Corregir los hallazgos antes</tspan><tspan x="585.0" dy="14.0">de avanzar</tspan></text>
<rect x="85.0" y="692" width="330" height="56" rx="9" fill="#D9E1F2" stroke="#1F3864" stroke-width="1.5"/>
<text x="250" y="720.0" text-anchor="middle" dominant-baseline="middle" font-family="DejaVu Sans, Arial, sans-serif" font-size="13" fill="#1F3864"><tspan x="250" dy="-8.0">Aprobación del CISO y paso a</tspan><tspan x="250" dy="16.0">producción</tspan></text>
<rect x="160" y="788" width="180" height="42" rx="21.0" ry="21.0" fill="#375623" stroke="#375623" stroke-width="1.6"/>
<text x="250" y="809.0" text-anchor="middle" dominant-baseline="middle" font-family="DejaVu Sans, Arial, sans-serif" font-size="14" fill="#FFFFFF" font-weight="bold"><tspan x="250" dy="0.0">Fin</tspan></text>
<text x="360.0" y="868" text-anchor="middle" dominant-baseline="middle" font-family="DejaVu Sans, Arial, sans-serif" font-size="10" fill="#808080"><tspan x="360.0" dy="0.0">NovaRetail SpA · SGSI · Equipo Thynk Unlimited</tspan></text>
</svg>