<svg xmlns="http://www.w3.org/2000/svg" width="720" height="774" viewBox="0 0 720 774">
<defs><marker id="a" markerWidth="9" markerHeight="9" refX="7" refY="3" orient="auto"><path d="M0,0 L8,3 L0,6 z" fill="#1F3864"/></marker><marker id="an" markerWidth="9" markerHeight="9" refX="7" refY="3" orient="auto"><path d="M0,0 L8,3 L0,6 z" fill="#A6A6A6"/></marker></defs>
<rect x="0" y="0" width="720" height="774" fill="#FFFFFF"/>
<text x="360.0" y="34" text-anchor="middle" dominant-baseline="middle" font-family="DejaVu Sans, Arial, sans-serif" font-size="16" fill="#1F3864" font-weight="bold"><tspan x="360.0" dy="0.0">PROC-SGSI-02 — Backup de base de datos</tspan></text>
<line x1="40" y1="52" x2="680" y2="52" stroke="#1F3864" stroke-width="1"/>
<line x1="250" y1="120" x2="250" y2="160" stroke="#1F3864" stroke-width="1.6" marker-end="url(#a)"/>
<line x1="250" y1="216" x2="250" y2="256" stroke="#1F3864" stroke-width="1.6" marker-end="url(#a)"/>
<line x1="250" y1="302" x2="250" y2="342" stroke="#1F3864" stroke-width="1.6" marker-end="url(#a)"/>
<line x1="250" y1="398" x2="250" y2="438" stroke="#1F3864" stroke-width="1.6" marker-end="url(#a)"/>
<line x1="250" y1="542" x2="250" y2="586" stroke="#1F3864" stroke-width="1.6" marker-end="url(#a)"/>
<text x="258" y="564.0" font-family="DejaVu Sans,Arial" font-size="11" fill="#375623">Sí</text>
<line x1="250" y1="642" x2="250" y2="682" stroke="#1F3864" stroke-width="1.6" marker-end="url(#a)"/>
<rect x="160" y="78" width="180" height="42" rx="21.0" ry="21.0" fill="#1F3864" stroke="#1F3864" stroke-width="1.6"/>
<text x="250" y="99.0" text-anchor="middle" dominant-baseline="middle" font-family="DejaVu Sans, Arial, sans-serif" font-size="14" fill="#FFFFFF" font-weight="bold"><tspan x="250" dy="0.0">Inicio</tspan></text>
<rect x="85.0" y="160" width="330" height="56" rx="9" fill="#D9E1F2" stroke="#1F3864" stroke-width="1.5"/>
<text x="250" y="188.0" text-anchor="middle" dominant-baseline="middle" font-family="DejaVu Sans, Arial, sans-serif" font-size="13" fill="#1F3864"><tspan x="250" dy="-8.0">Programar respaldos 3-2-1 (incremental</tspan><tspan x="250" dy="16.0">diario / completo semanal)</tspan></text>
<rect x="85.0" y="256" width="330" height="46" rx="9" fill="#D9E1F2" stroke="#1F3864" stroke-width="1.5"/>
<text x="250" y="279.0" text-anchor="middle" dominant-baseline="middle" font-family="DejaVu Sans, Arial, sans-serif" font-size="13" fill="#1F3864"><tspan x="250" dy="0.0">Cifrar la copia de respaldo</tspan></text>
<rect x="85.0" y="342" width="330" height="56" rx="9" fill="#D9E1F2" stroke="#1F3864" stroke-width="1.5"/>
<text x="250" y="370.0" text-anchor="middle" dominant-baseline="middle" font-family="DejaVu Sans, Arial, sans-serif" font-size="13" fill="#1F3864"><tspan x="250" dy="-8.0">Almacenar en 2 medios + 1 copia</tspan><tspan x="250" dy="16.0">offsite inmutable</tspan></text>
<polygon points="250,438 350.0,490.0 250,542 150.0,490.0" fill="#FFE699" stroke="#BF8F00" stroke-width="1.6"/>
<text x="250" y="490.0" text-anchor="middle" dominant-baseline="middle" font-family="DejaVu Sans, Arial, sans-serif" font-size="12" fill="#7F6000"><tspan x="250" dy="-15.0">¿Prueba de</tspan><tspan x="250" dy="15.0">restauración</tspan><tspan x="250" dy="15.0">trimestral exitosa?</tspan></text>
<line x1="350.0" y1="490.0" x2="470" y2="490.0" stroke="#A6A6A6" stroke-width="1.4" marker-end="url(#an)"/>
<text x="410.0" y="485.0" text-anchor="middle" font-family="DejaVu Sans,Arial" font-size="11" fill="#C00000">No</text>
<rect x="470" y="470.0" width="230" height="40" rx="7" fill="#F2F2F2" stroke="#A6A6A6" stroke-width="1.3"/>
<text x="585.0" y="490.0" text-anchor="middle" dominant-baseline="middle" font-family="DejaVu Sans, Arial, sans-serif" font-size="11" fill="#595959"><tspan x="585.0" dy="0.0">Abrir incidente y corregir</tspan></text>
<rect x="85.0" y="586" width="330" height="56" rx="9" fill="#D9E1F2" stroke="#1F3864" stroke-width="1.5"/>
<text x="250" y="614.0" text-anchor="middle" dominant-baseline="middle" font-family="DejaVu Sans, Arial, sans-serif" font-size="13" fill="#1F3864"><tspan x="250" dy="-8.0">Registrar evidencia y aplicar la</tspan><tspan x="250" dy="16.0">retención</tspan></text>
<rect x="160" y="682" width="180" height="42" rx="21.0" ry="21.0" fill="#375623" stroke="#375623" stroke-width="1.6"/>
<text x="250" y="703.0" text-anchor="middle" dominant-baseline="middle" font-family="DejaVu Sans, Arial, sans-serif" font-size="14" fill="#FFFFFF" font-weight="bold"><tspan x="250" dy="0.0">Fin</tspan></text>
<text x="360.0" y="762" text-anchor="middle" dominant-baseline="middle" font-family="DejaVu Sans, Arial, sans-serif" font-size="10" fill="#808080"><tspan x="360.0" dy="0.0">NovaRetail SpA · SGSI · Equipo Thynk Unlimited</tspan></text>
</svg>