<svg xmlns="http://www.w3.org/2000/svg" width="760" height="1125" viewBox="0 0 760 1125">
<defs><marker id="a" markerWidth="9" markerHeight="9" refX="7" refY="3" orient="auto"><path d="M0,0 L8,3 L0,6 z" fill="#1F3864"/></marker><marker id="an" markerWidth="9" markerHeight="9" refX="7" refY="3" orient="auto"><path d="M0,0 L8,3 L0,6 z" fill="#A6A6A6"/></marker></defs>
<rect width="760" height="1125" fill="#FFFFFF"/>
<text x="380.0" y="30" text-anchor="middle" dominant-baseline="middle" font-family="DejaVu Sans, Arial, sans-serif" font-size="16" fill="#1F3864" font-weight="bold"><tspan x="380.0" dy="0.0">PROC-SGSI-05 — Gestión de incidentes y notificación ANCI</tspan></text>
<text x="380.0" y="52" text-anchor="middle" dominant-baseline="middle" font-family="DejaVu Sans, Arial, sans-serif" font-size="11" fill="#595959"><tspan x="380.0" dy="0.0">ISO/IEC 27001:2022 — 5.24, 5.25, 5.26</tspan></text>
<line x1="40" y1="66" x2="720" y2="66" stroke="#1F3864" stroke-width="1"/>
<line x1="255" y1="136" x2="255" y2="176" stroke="#1F3864" stroke-width="1.6" marker-end="url(#a)"/>
<line x1="255" y1="222" x2="255" y2="262" stroke="#1F3864" stroke-width="1.6" marker-end="url(#a)"/>
<line x1="255" y1="370" x2="255" y2="416" stroke="#1F3864" stroke-width="1.6" marker-end="url(#a)"/>
<text x="263" y="393.0" font-family="DejaVu Sans,Arial" font-size="11" fill="#375623">Sí</text>
<line x1="255" y1="462" x2="255" y2="502" stroke="#1F3864" stroke-width="1.6" marker-end="url(#a)"/>
<line x1="255" y1="548" x2="255" y2="588" stroke="#1F3864" stroke-width="1.6" marker-end="url(#a)"/>
<line x1="255" y1="644" x2="255" y2="684" stroke="#1F3864" stroke-width="1.6" marker-end="url(#a)"/>
<line x1="255" y1="740" x2="255" y2="780" stroke="#1F3864" stroke-width="1.6" marker-end="url(#a)"/>
<line x1="255" y1="826" x2="255" y2="866" stroke="#1F3864" stroke-width="1.6" marker-end="url(#a)"/>
<line x1="255" y1="912" x2="255" y2="952" stroke="#1F3864" stroke-width="1.6" marker-end="url(#a)"/>
<rect x="160" y="92" width="190" height="44" rx="22.0" fill="#1F3864" stroke="#1F3864" stroke-width="1.6"/>
<text x="255" y="114.0" text-anchor="middle" dominant-baseline="middle" font-family="DejaVu Sans, Arial, sans-serif" font-size="13" fill="#FFFFFF" font-weight="bold"><tspan x="255" dy="0.0">Detección del evento</tspan></text>
<rect x="85.0" y="176" width="340" height="46" rx="9" fill="#D9E1F2" stroke="#1F3864" stroke-width="1.5"/>
<text x="255" y="199.0" text-anchor="middle" dominant-baseline="middle" font-family="DejaVu Sans, Arial, sans-serif" font-size="13" fill="#1F3864"><tspan x="255" dy="0.0">Registro y triage (SIEM / ticket)</tspan></text>
<polygon points="255,262 360.0,316.0 255,370 150.0,316.0" fill="#FFE699" stroke="#BF8F00" stroke-width="1.6"/>
<text x="255" y="316.0" text-anchor="middle" dominant-baseline="middle" font-family="DejaVu Sans, Arial, sans-serif" font-size="12" fill="#7F6000"><tspan x="255" dy="-15.0">¿Incidente N3 o</tspan><tspan x="255" dy="15.0">afecta un servicio</tspan><tspan x="255" dy="15.0">esencial?</tspan></text>
<line x1="360.0" y1="316.0" x2="500" y2="316.0" stroke="#A6A6A6" stroke-width="1.4" marker-end="url(#an)"/>
<text x="430.0" y="311.0" text-anchor="middle" font-family="DejaVu Sans,Arial" font-size="11" fill="#C00000">No</text>
<rect x="500" y="291.0" width="240" height="50" rx="7" fill="#F2F2F2" stroke="#A6A6A6"/>
<text x="620.0" y="316.0" text-anchor="middle" dominant-baseline="middle" font-family="DejaVu Sans, Arial, sans-serif" font-size="11" fill="#595959"><tspan x="620.0" dy="-7.0">Gestión interna y registro</tspan><tspan x="620.0" dy="14.0">(cierre)</tspan></text>
<rect x="85.0" y="416" width="340" height="46" rx="9" fill="#FBE2D5" stroke="#C00000" stroke-width="2"/>
<text x="255" y="439.0" text-anchor="middle" dominant-baseline="middle" font-family="DejaVu Sans, Arial, sans-serif" font-size="13" fill="#C00000" font-weight="bold"><tspan x="255" dy="0.0">Alerta temprana a ANCI ≤ 3 horas</tspan></text>
<rect x="85.0" y="502" width="340" height="46" rx="9" fill="#D9E1F2" stroke="#1F3864" stroke-width="1.5"/>
<text x="255" y="525.0" text-anchor="middle" dominant-baseline="middle" font-family="DejaVu Sans, Arial, sans-serif" font-size="13" fill="#1F3864"><tspan x="255" dy="0.0">Contención y preservación de evidencia</tspan></text>
<rect x="85.0" y="588" width="340" height="56" rx="9" fill="#FBE2D5" stroke="#C00000" stroke-width="2"/>
<text x="255" y="616.0" text-anchor="middle" dominant-baseline="middle" font-family="DejaVu Sans, Arial, sans-serif" font-size="13" fill="#C00000" font-weight="bold"><tspan x="255" dy="-8.0">Actualización a ANCI ≤ 72 h (24 h si</tspan><tspan x="255" dy="16.0">OIV)</tspan></text>
<rect x="85.0" y="684" width="340" height="56" rx="9" fill="#D9E1F2" stroke="#1F3864" stroke-width="1.5"/>
<text x="255" y="712.0" text-anchor="middle" dominant-baseline="middle" font-family="DejaVu Sans, Arial, sans-serif" font-size="13" fill="#1F3864"><tspan x="255" dy="-8.0">Erradicación y recuperación (PROC-02 /</tspan><tspan x="255" dy="16.0">03)</tspan></text>
<rect x="85.0" y="780" width="340" height="46" rx="9" fill="#FBE2D5" stroke="#C00000" stroke-width="2"/>
<text x="255" y="803.0" text-anchor="middle" dominant-baseline="middle" font-family="DejaVu Sans, Arial, sans-serif" font-size="13" fill="#C00000" font-weight="bold"><tspan x="255" dy="0.0">Informe final a ANCI ≤ 15 días corridos</tspan></text>
<rect x="85.0" y="866" width="340" height="46" rx="9" fill="#D9E1F2" stroke="#1F3864" stroke-width="1.5"/>
<text x="255" y="889.0" text-anchor="middle" dominant-baseline="middle" font-family="DejaVu Sans, Arial, sans-serif" font-size="13" fill="#1F3864"><tspan x="255" dy="0.0">Cierre y lecciones aprendidas</tspan></text>
<rect x="160" y="952" width="190" height="44" rx="22.0" fill="#375623" stroke="#375623" stroke-width="1.6"/>
<text x="255" y="974.0" text-anchor="middle" dominant-baseline="middle" font-family="DejaVu Sans, Arial, sans-serif" font-size="13" fill="#FFFFFF" font-weight="bold"><tspan x="255" dy="0.0">Fin</tspan></text>
<rect x="40" y="1042" width="680" height="63" rx="6" fill="#F7F7F7" stroke="#D0D0D0"/>
<text x="54" y="1056" text-anchor="start" dominant-baseline="middle" font-family="DejaVu Sans, Arial, sans-serif" font-size="11" fill="#404040"><tspan x="54" dy="0.0">Roles (RACI): CISO, ERI, Gerencia TI, Legal</tspan></text>
<text x="54" y="1071" text-anchor="start" dominant-baseline="middle" font-family="DejaVu Sans, Arial, sans-serif" font-size="11" fill="#404040"><tspan x="54" dy="0.0">Evidencia / registros: Ticket, cadena de custodia, reportes ANCI</tspan></text>
<text x="54" y="1086" text-anchor="start" dominant-baseline="middle" font-family="DejaVu Sans, Arial, sans-serif" font-size="11" fill="#404040"><tspan x="54" dy="0.0">Plazos / hitos: 3 h / 72 h / 15 días</tspan></text>
</svg>