<svg xmlns="http://www.w3.org/2000/svg" width="760" height="791" viewBox="0 0 760 791">
<defs><marker id="a" markerWidth="9" markerHeight="9" refX="7" refY="3" orient="auto"><path d="M0,0 L8,3 L0,6 z" fill="#1F3864"/></marker><marker id="an" markerWidth="9" markerHeight="9" refX="7" refY="3" orient="auto"><path d="M0,0 L8,3 L0,6 z" fill="#A6A6A6"/></marker></defs>
<rect width="760" height="791" fill="#FFFFFF"/>
<text x="380.0" y="30" text-anchor="middle" dominant-baseline="middle" font-family="DejaVu Sans, Arial, sans-serif" font-size="16" fill="#1F3864" font-weight="bold"><tspan x="380.0" dy="0.0">PROC-SGSI-07 — Revisión periódica de accesos</tspan></text>
<text x="380.0" y="52" text-anchor="middle" dominant-baseline="middle" font-family="DejaVu Sans, Arial, sans-serif" font-size="11" fill="#595959"><tspan x="380.0" dy="0.0">ISO/IEC 27001:2022 — 5.18</tspan></text>
<line x1="40" y1="66" x2="720" y2="66" stroke="#1F3864" stroke-width="1"/>
<line x1="255" y1="136" x2="255" y2="176" stroke="#1F3864" stroke-width="1.6" marker-end="url(#a)"/>
<line x1="255" y1="232" x2="255" y2="272" stroke="#1F3864" stroke-width="1.6" marker-end="url(#a)"/>
<line x1="255" y1="328" x2="255" y2="368" stroke="#1F3864" stroke-width="1.6" marker-end="url(#a)"/>
<line x1="255" y1="476" x2="255" y2="522" stroke="#1F3864" stroke-width="1.6" marker-end="url(#a)"/>
<text x="263" y="499.0" font-family="DejaVu Sans,Arial" font-size="11" fill="#375623">Sí</text>
<line x1="255" y1="578" x2="255" y2="618" stroke="#1F3864" stroke-width="1.6" marker-end="url(#a)"/>
<rect x="160" y="92" width="190" height="44" rx="22.0" fill="#1F3864" stroke="#1F3864" stroke-width="1.6"/>
<text x="255" y="114.0" text-anchor="middle" dominant-baseline="middle" font-family="DejaVu Sans, Arial, sans-serif" font-size="13" fill="#FFFFFF" font-weight="bold"><tspan x="255" dy="0.0">Inicio</tspan></text>
<rect x="85.0" y="176" width="340" height="56" rx="9" fill="#D9E1F2" stroke="#1F3864" stroke-width="1.5"/>
<text x="255" y="204.0" text-anchor="middle" dominant-baseline="middle" font-family="DejaVu Sans, Arial, sans-serif" font-size="13" fill="#1F3864"><tspan x="255" dy="-8.0">Ciclo semestral: el CISO envía el</tspan><tspan x="255" dy="16.0">formulario FVA-02</tspan></text>
<rect x="85.0" y="272" width="340" height="56" rx="9" fill="#D9E1F2" stroke="#1F3864" stroke-width="1.5"/>
<text x="255" y="300.0" text-anchor="middle" dominant-baseline="middle" font-family="DejaVu Sans, Arial, sans-serif" font-size="13" fill="#1F3864"><tspan x="255" dy="-8.0">Las jefaturas validan los accesos de su</tspan><tspan x="255" dy="16.0">equipo (10 días)</tspan></text>
<polygon points="255,368 360.0,422.0 255,476 150.0,422.0" fill="#FFE699" stroke="#BF8F00" stroke-width="1.6"/>
<text x="255" y="422.0" text-anchor="middle" dominant-baseline="middle" font-family="DejaVu Sans, Arial, sans-serif" font-size="12" fill="#7F6000"><tspan x="255" dy="-7.5">¿El acceso sigue</tspan><tspan x="255" dy="15.0">siendo necesario?</tspan></text>
<line x1="360.0" y1="422.0" x2="500" y2="422.0" stroke="#A6A6A6" stroke-width="1.4" marker-end="url(#an)"/>
<text x="430.0" y="417.0" text-anchor="middle" font-family="DejaVu Sans,Arial" font-size="11" fill="#C00000">No</text>
<rect x="500" y="402.0" width="240" height="40" rx="7" fill="#F2F2F2" stroke="#A6A6A6"/>
<text x="620.0" y="422.0" text-anchor="middle" dominant-baseline="middle" font-family="DejaVu Sans, Arial, sans-serif" font-size="11" fill="#595959"><tspan x="620.0" dy="0.0">Revocar el acceso</tspan></text>
<rect x="85.0" y="522" width="340" height="56" rx="9" fill="#D9E1F2" stroke="#1F3864" stroke-width="1.5"/>
<text x="255" y="550.0" text-anchor="middle" dominant-baseline="middle" font-family="DejaVu Sans, Arial, sans-serif" font-size="13" fill="#1F3864"><tspan x="255" dy="-8.0">Consolidar el informe y presentarlo al</tspan><tspan x="255" dy="16.0">Comité SGSI</tspan></text>
<rect x="160" y="618" width="190" height="44" rx="22.0" fill="#375623" stroke="#375623" stroke-width="1.6"/>
<text x="255" y="640.0" text-anchor="middle" dominant-baseline="middle" font-family="DejaVu Sans, Arial, sans-serif" font-size="13" fill="#FFFFFF" font-weight="bold"><tspan x="255" dy="0.0">Fin</tspan></text>
<rect x="40" y="708" width="680" height="63" rx="6" fill="#F7F7F7" stroke="#D0D0D0"/>
<text x="54" y="722" text-anchor="start" dominant-baseline="middle" font-family="DejaVu Sans, Arial, sans-serif" font-size="11" fill="#404040"><tspan x="54" dy="0.0">Roles (RACI): CISO, jefaturas</tspan></text>
<text x="54" y="737" text-anchor="start" dominant-baseline="middle" font-family="DejaVu Sans, Arial, sans-serif" font-size="11" fill="#404040"><tspan x="54" dy="0.0">Evidencia / registros: Formulario FVA-02, informe</tspan></text>
<text x="54" y="752" text-anchor="start" dominant-baseline="middle" font-family="DejaVu Sans, Arial, sans-serif" font-size="11" fill="#404040"><tspan x="54" dy="0.0">Plazos / hitos: Semestral</tspan></text>
</svg>